<svg width="189" height="234" viewBox="0 0 189 234" fill="none" xmlns="http://www.w3.org/2000/svg">
<path d="M70.875 64.9688H59.0625C54.3632 64.9687 49.8564 66.8355 46.5335 70.1585C43.2105 73.4814 41.3438 77.9882 41.3438 82.6875V153.562C41.3438 158.262 43.2105 162.769 46.5335 166.092C49.8564 169.414 54.3632 171.281 59.0625 171.281H129.938C134.637 171.281 139.144 169.414 142.467 166.092C145.789 162.769 147.656 158.262 147.656 153.562V82.6875C147.656 77.9882 145.789 73.4814 142.467 70.1585C139.144 66.8355 134.637 64.9688 129.938 64.9688H118.125M118.125 41.3438L94.5 17.7188M94.5 17.7188L70.875 41.3438M94.5 17.7188V118.125" stroke="black" stroke-width="10" stroke-linecap="round" stroke-linejoin="round"/>
<path d="M46.8076 185.571C50.1305 188.894 54.6374 190.761 59.3367 190.761H130.212C134.911 190.761 139.418 188.894 142.741 185.571" stroke="black" stroke-width="10" stroke-linecap="round" stroke-linejoin="round"/>
<path d="M46.8076 205.571C50.1305 208.894 54.6374 210.761 59.3367 210.761H130.212C134.911 210.761 139.418 208.894 142.741 205.571" stroke="#4F4F4F" stroke-width="10" stroke-linecap="round" stroke-linejoin="round"/>
<path d="M46.8076 223.571C50.1305 226.894 54.6374 228.761 59.3367 228.761H130.212C134.911 228.761 139.418 226.894 142.741 223.571" stroke="#9E9E9E" stroke-width="10" stroke-linecap="round" stroke-linejoin="round"/>
</svg>
